<?xml version="1.0" standalone="no"?>
<!DOCTYPE svg PUBLIC "-//W3C//DTD SVG 20010904//EN"
 "http://www.w3.org/TR/2001/REC-SVG-20010904/DTD/svg10.dtd">
<svg version="1.0" xmlns="http://www.w3.org/2000/svg"
 width="155.000000pt" height="155.000000pt" viewBox="0 0 155.000000 155.000000"
 preserveAspectRatio="xMidYMid meet">
<metadata>
Created by potrace 1.14, written by Peter Selinger 2001-2017
</metadata>
<g transform="translate(0.000000,155.000000) scale(0.100000,-0.100000)"
fill="#000000" stroke="none">
<path d="M390 1500 c0 -11 5 -20 10 -20 6 0 10 -9 10 -20 0 -11 5 -20 10 -20
6 0 10 -9 10 -20 0 -11 5 -20 10 -20 6 0 10 -8 10 -18 0 -10 9 -24 20 -32 35
-25 25 -57 -40 -120 -33 -32 -60 -65 -60 -72 0 -8 -9 -20 -20 -28 -11 -8 -20
-22 -20 -32 0 -10 -4 -18 -10 -18 -5 0 -10 -7 -10 -16 0 -20 -24 -44 -44 -44
-9 0 -16 -4 -16 -10 0 -5 -7 -10 -15 -10 -9 0 -27 -11 -40 -25 -25 -24 -33
-55 -15 -55 6 0 10 -7 10 -16 0 -8 18 -33 40 -54 38 -36 52 -70 30 -70 -5 0
-10 -25 -10 -56 0 -52 3 -58 40 -94 35 -33 40 -44 40 -82 0 -32 5 -47 20 -58
11 -8 20 -22 20 -31 0 -10 6 -20 13 -23 10 -5 10 -7 0 -12 -7 -3 -13 -14 -13
-25 0 -10 -4 -19 -10 -19 -5 0 -10 -18 -10 -40 0 -22 -4 -40 -10 -40 -5 0 -10
-9 -10 -20 0 -11 -4 -20 -10 -20 -5 0 -10 -22 -10 -50 0 -27 5 -50 10 -50 6 0
10 -13 10 -30 0 -16 5 -30 10 -30 6 0 10 -12 10 -26 0 -60 73 -75 120 -24 15
17 35 30 44 30 9 0 16 5 16 10 0 6 9 10 20 10 11 0 20 5 20 10 0 6 7 10 16 10
18 0 44 23 44 40 0 6 18 29 40 50 32 31 40 46 40 74 0 20 -4 36 -10 36 -5 0
-10 7 -10 15 0 21 72 93 78 77 2 -7 17 -12 33 -12 16 0 29 -4 29 -10 0 -5 9
-10 20 -10 11 0 20 -4 20 -10 0 -5 -4 -10 -10 -10 -5 0 -10 -9 -10 -20 0 -11
5 -20 10 -20 6 0 10 -9 10 -20 0 -11 -4 -20 -10 -20 -18 0 -11 -35 10 -50 11
-8 20 -20 20 -28 0 -16 -24 -42 -40 -42 -12 0 -40 -24 -40 -34 0 -3 43 -6 96
-6 98 0 124 9 124 44 0 9 7 16 16 16 20 0 44 -24 44 -44 0 -12 11 -16 50 -16
43 0 50 3 50 20 0 13 7 20 20 20 11 0 20 5 20 10 0 6 14 10 30 10 29 0 30 1
30 50 0 28 -4 50 -10 50 -5 0 -10 9 -10 20 0 11 -4 20 -10 20 -5 0 -10 7 -10
15 0 9 -11 27 -25 41 l-26 25 -30 -32 c-16 -17 -32 -29 -36 -25 -3 3 4 14 15
25 27 23 28 42 2 61 -11 8 -20 25 -20 38 0 27 31 64 38 44 2 -6 17 -12 33 -12
16 0 29 -4 29 -10 0 -21 70 -10 95 15 32 31 34 84 5 105 -11 8 -20 21 -20 30
0 9 -9 22 -20 30 -11 8 -20 20 -20 28 0 18 -25 42 -44 42 -9 0 -16 8 -16 20 0
11 -4 20 -10 20 -5 0 -10 5 -10 10 0 6 20 10 45 10 35 0 52 6 70 25 14 13 25
31 25 40 0 8 5 15 10 15 6 0 10 11 10 25 0 29 -40 75 -65 75 -8 0 -15 5 -15
10 0 6 -9 10 -20 10 -11 0 -20 5 -20 10 0 6 -9 10 -20 10 -11 0 -20 5 -20 10
0 6 -22 10 -50 10 -49 0 -50 1 -50 30 0 17 -4 30 -10 30 -5 0 -10 9 -10 20 0
11 -4 20 -10 20 -5 0 -10 9 -10 20 0 11 5 20 10 20 6 0 10 9 10 20 0 11 -4 20
-10 20 -5 0 -10 14 -10 30 0 17 -4 30 -10 30 -5 0 -10 9 -10 20 0 11 -4 20
-10 20 -5 0 -10 9 -10 20 0 18 -7 20 -70 20 -40 0 -70 4 -70 10 0 6 -33 10
-80 10 -47 0 -80 4 -80 10 0 6 -18 10 -40 10 -22 0 -40 5 -40 10 0 6 -13 10
-30 10 -16 0 -30 5 -30 10 0 6 -9 10 -20 10 -11 0 -20 5 -20 10 0 6 -9 10 -20
10 -11 0 -20 5 -20 10 0 6 -8 10 -18 10 -10 0 -24 9 -32 20 -8 11 -22 20 -32
20 -11 0 -18 -7 -18 -20z m400 -270 c0 -5 7 -10 16 -10 20 0 49 -29 39 -38 -4
-4 -10 -1 -12 6 -6 15 -123 17 -123 2 0 -5 -9 -10 -20 -10 -11 0 -20 -4 -20
-10 0 -5 -18 -10 -40 -10 -22 0 -40 -4 -40 -10 0 -5 -4 -10 -10 -10 -5 0 -10
18 -10 40 0 33 3 40 20 40 11 0 20 -4 20 -10 0 -5 18 -10 40 -10 22 0 40 5 40
10 0 6 9 10 20 10 11 0 20 5 20 10 0 6 14 10 30 10 17 0 30 -4 30 -10z m-394
-404 c8 -8 14 -26 14 -40 0 -23 -4 -26 -36 -26 -38 0 -64 18 -64 44 0 9 8 16
20 16 11 0 20 5 20 10 0 15 29 12 46 -4z m174 -126 c0 -11 5 -20 10 -20 6 0
10 -9 10 -20 0 -17 -7 -20 -40 -20 -22 0 -40 5 -40 10 0 6 5 10 10 10 6 0 10
14 10 30 0 23 4 30 20 30 13 0 20 -7 20 -20z m500 -86 c0 -3 -7 -12 -15 -21
-20 -19 -32 -10 -14 11 14 15 29 21 29 10z"/>
</g>
</svg>
